HIERARCHY
ROOT root
{
	OFFSET 0.000000 0.000000 0.000000
	CHANNELS 6 Xposition Yposition Zposition Zrotation Yrotation Xrotation
	JOINT lhip
	{
		OFFSET 0.058581 -0.082280 -0.017664
		CHANNELS 3 Zrotation Yrotation Xrotation
		JOINT lknee
		{
			OFFSET 0.043451 -0.386469 0.008037
			CHANNELS 3 Zrotation Yrotation Xrotation
			JOINT lankle
			{
				OFFSET -0.014790 -0.426874 -0.037428
				CHANNELS 3 Zrotation Yrotation Xrotation
				JOINT ltoe
				{
					OFFSET 0.041054 -0.060286 0.122042
					CHANNELS 3 Zrotation Yrotation Xrotation
					End Site
					{
						OFFSET 0.000000 0.000000 0.000000
					}
				}
			}
		}
	}
	JOINT rhip
	{
		OFFSET -0.060310 -0.090513 -0.013543
		CHANNELS 3 Zrotation Yrotation Xrotation
		JOINT rknee
		{
			OFFSET -0.043257 -0.383688 -0.004843
			CHANNELS 3 Zrotation Yrotation Xrotation
			JOINT rankle
			{
				OFFSET 0.019056 -0.420046 -0.034562
				CHANNELS 3 Zrotation Yrotation Xrotation
				JOINT rtoe
				{
					OFFSET -0.034840 -0.062106 0.130323
					CHANNELS 3 Zrotation Yrotation Xrotation
					End Site
					{
						OFFSET 0.000000 0.000000 0.000000
					}
				}
			}
		}
	}
	JOINT lowerback
	{
		OFFSET 0.004439 0.124404 -0.038385
		CHANNELS 3 Zrotation Yrotation Xrotation
		JOINT upperback
		{
			OFFSET 0.004488 0.137956 0.026820
			CHANNELS 3 Zrotation Yrotation Xrotation
			JOINT chest
			{
				OFFSET -0.002265 0.056032 0.002855
				CHANNELS 3 Zrotation Yrotation Xrotation
				JOINT lowerneck
				{
					OFFSET -0.013390 0.211636 -0.033468
					CHANNELS 3 Zrotation Yrotation Xrotation
					JOINT upperneck
					{
						OFFSET 0.010113 0.088937 0.050410
						CHANNELS 3 Zrotation Yrotation Xrotation
						End Site
						{
							OFFSET 0.000000 0.000000 0.000000
						}
					}
				}
				JOINT lclavicle
				{
					OFFSET 0.071702 0.114000 -0.018898
					CHANNELS 3 Zrotation Yrotation Xrotation
					JOINT lshoulder
					{
						OFFSET 0.122921 0.045205 -0.019046
						CHANNELS 3 Zrotation Yrotation Xrotation
						JOINT lelbow
						{
							OFFSET 0.255332 -0.015649 -0.022946
							CHANNELS 3 Zrotation Yrotation Xrotation
							JOINT lwrist
							{
								OFFSET 0.265709 0.012698 -0.007375
								CHANNELS 3 Zrotation Yrotation Xrotation
								End Site
								{
									OFFSET 0.000000 0.000000 0.000000
								}
							}
						}
					}
				}
				JOINT rclavicle
				{
					OFFSET -0.082954 0.112472 -0.023707
					CHANNELS 3 Zrotation Yrotation Xrotation
					JOINT rshoulder
					{
						OFFSET -0.113228 0.046853 -0.008472
						CHANNELS 3 Zrotation Yrotation Xrotation
						JOINT relbow
						{
							OFFSET -0.260127 -0.014369 -0.031269
							CHANNELS 3 Zrotation Yrotation Xrotation
							JOINT rwrist
							{
								OFFSET -0.269108 0.006794 -0.006027
								CHANNELS 3 Zrotation Yrotation Xrotation
								End Site
								{
									OFFSET 0.000000 0.000000 0.000000
								}
							}
						}
					}
				}
			}
		}
	}
}
MOTION
Frames: 10
Frame Time: 0.033333
-0.785526 -0.691206 0.911032 172.436238 0.476341 110.693141 8.271308 1.825447 7.510365 -8.099874 -14.712787 23.807692 -10.035611 -1.516399 3.225701 0.000000 -0.000000 0.000000 -7.024774 6.662102 -63.639835 1.820885 -19.233827 63.447267 -5.891575 -4.352595 -21.261907 0.000000 -0.000000 0.000000 -1.120418 -11.769771 18.135447 8.458150 -4.086848 10.285404 3.380606 -6.672601 -1.495175 0.066935 16.900639 -8.930208 -5.878213 4.021891 -7.055697 -19.659494 -4.058013 0.652266 -56.836280 -11.344580 14.390478 33.119806 -72.642824 -12.419893 13.096499 -6.712606 -17.499697 23.602447 2.395035 -0.276347 55.182463 17.474752 5.681066 -82.456639 43.889365 -84.071984 -2.999144 6.090610 -55.230765 
-0.767003 -0.593429 0.917115 170.396641 0.168223 109.972392 5.194297 0.909277 12.413779 -4.807581 -12.662197 24.608796 -7.961659 3.210544 3.576076 0.000000 -0.000000 0.000000 -6.230348 7.528683 -62.821700 4.733837 -19.859866 49.999063 -5.552783 -5.092431 -19.751759 0.000000 -0.000000 0.000000 0.434324 -12.441845 17.524013 8.869372 -4.872011 10.220487 3.229273 -7.455747 -0.703024 -1.064092 18.252231 -10.053163 -8.474181 6.302152 -7.466170 -18.920805 -2.043391 1.785602 -57.489126 -7.991891 12.628356 16.080762 -69.998501 3.645698 9.736994 -7.181742 -17.248471 23.376376 0.818827 -1.678607 57.837131 19.518855 8.620110 -98.354267 43.893758 -92.334682 -1.325658 6.522678 -46.532233 
-0.745653 -0.496051 0.912025 166.908951 -0.306790 109.171045 3.212961 1.383088 14.511093 -7.256243 -9.950594 31.929242 -8.933928 1.624094 3.243178 0.000000 -0.000000 0.000000 -3.214078 8.501216 -59.747731 5.784408 -19.926054 41.698738 -5.434592 -5.862975 -18.145385 0.000000 -0.000000 0.000000 0.085670 -11.278755 17.010995 9.722356 -5.546923 10.343760 3.659415 -7.738997 -0.145945 -1.307045 19.886825 -9.806385 -11.327900 8.589503 -8.384968 -18.725000 -1.109344 2.919271 -59.245473 -3.148856 11.534479 3.248761 -63.194241 15.314453 7.128814 -6.652795 -16.256609 22.952870 1.243243 -3.729197 59.019527 22.965653 11.772448 -112.809022 42.158532 -99.495475 1.687786 5.905309 -36.461895 
-0.724578 -0.399639 0.899321 164.670842 -0.458106 108.330642 3.365990 2.892974 12.075248 -10.352132 -5.730844 45.538504 -7.224842 1.194572 3.331584 0.000000 -0.000000 0.000000 0.376598 8.827453 -54.387832 6.084011 -21.185925 40.399040 -13.636179 -9.627738 -14.033359 0.000000 -0.000000 0.000000 1.022929 -10.400802 16.730505 10.039532 -6.179506 10.014354 3.845895 -7.864250 -0.141999 -1.407096 18.093742 -9.301012 -12.427459 12.623193 -9.857069 -19.220912 -1.589048 4.631309 -61.910481 2.610375 8.787242 -5.303709 -53.889997 24.645567 4.358882 -5.147953 -14.012773 20.490943 3.357648 -5.093602 60.865354 28.222605 13.160052 -124.466258 41.657924 -102.948948 4.164395 4.599631 -24.058531 
-0.702351 -0.306757 0.881294 162.215103 -1.204298 106.869320 4.443142 5.193078 6.472203 -6.576233 1.915754 62.513812 -6.085427 3.260728 0.873042 0.000000 -0.000000 0.000000 3.057624 8.569022 -49.325471 3.594430 -19.370321 50.295245 -16.573681 -13.089892 -27.450732 0.000000 -0.000000 0.000000 1.124877 -8.704752 16.722080 9.726898 -6.344274 10.737010 3.081227 -7.149159 -0.321302 0.554372 18.418672 -10.171200 -13.378388 12.957720 -9.664694 -19.698211 -3.142817 5.869872 -64.170053 8.581317 5.883577 -8.551838 -44.275167 30.355964 2.030338 -3.784810 -10.622650 19.332284 7.381703 -6.245820 59.057062 33.383666 12.209056 -134.302331 42.600005 -105.758028 8.116890 3.321534 -12.550998 
-0.680254 -0.219378 0.870727 159.131321 -0.066431 105.982201 6.164240 4.405530 -3.440648 -4.558917 6.270512 79.235884 -1.765160 6.292001 -4.776450 0.000000 -0.000000 0.000000 4.887105 10.208539 -43.514741 4.867613 -16.877331 54.854712 -17.181549 -16.327100 -33.047984 0.000000 -0.000000 0.000000 2.703313 -5.961126 18.478807 9.335187 -4.488692 10.192604 2.574592 -5.186247 -0.148635 0.893567 16.188880 -13.503748 -13.180607 12.004624 -9.137732 -21.670297 -5.129176 6.173725 -64.874760 12.815331 4.469341 -8.270713 -33.442274 31.682212 -0.588216 -3.063771 -4.414674 18.732877 12.378483 -6.146357 49.484277 36.478973 8.150859 -139.059359 45.519680 -107.357299 9.624088 3.294959 -6.082718 
-0.655258 -0.131435 0.872288 156.545838 -0.123051 104.660109 6.591835 2.909935 -14.698728 -5.730921 7.063636 89.134278 1.309597 6.785536 -7.832035 0.000000 -0.000000 0.000000 6.452837 8.468049 -33.380662 6.209768 -13.186141 53.665747 -16.786127 -15.872297 -37.318486 0.000000 -0.000000 0.000000 3.613723 -2.129767 20.092234 8.194827 -3.560150 10.898401 2.046826 -2.867955 -1.356879 0.867620 12.962034 -15.110446 -11.606330 9.152662 -9.725597 -22.138002 -5.910425 5.915946 -64.069462 17.280534 2.495402 -9.045325 -26.715888 35.473832 -6.744488 -1.425170 1.475513 16.704862 15.321635 -5.099562 40.807288 34.748040 1.888946 -136.234707 53.657461 -103.568025 10.485360 3.434645 -1.088635 
-0.625776 -0.043399 0.883115 153.524331 -1.601173 104.617344 7.272048 0.292243 -27.169445 -5.496209 8.885123 89.761872 3.376278 7.761634 -11.456500 0.000000 -0.000000 0.000000 6.025168 4.677460 -23.968614 8.249775 -6.469799 50.021038 -13.415495 -13.829580 -37.098542 0.000000 -0.000000 0.000000 1.848156 3.169136 19.473982 6.663717 -2.366493 10.417263 2.025807 -0.877871 -0.734989 1.084793 9.503496 -14.853312 -8.750259 5.699114 -9.823499 -21.692118 -3.865792 6.479053 -58.942561 21.400869 3.264444 -13.668384 -29.581801 38.889598 -8.871151 -1.513262 0.964035 17.271621 15.383147 -3.301418 33.525881 31.297004 -2.077819 -111.346237 65.041602 -83.506333 12.580456 2.070023 3.299406 
-0.589849 0.050836 0.901046 150.248039 -2.843696 103.563175 9.843849 -1.092956 -34.959738 -3.642255 10.919924 80.718722 3.679976 9.279440 -14.059458 0.000000 -0.000000 0.000000 3.898327 1.661627 -12.166960 9.534045 0.531864 43.402438 -8.467316 -9.975943 -32.264165 0.000000 -0.000000 0.000000 -1.081751 8.519721 19.308421 5.190982 -0.914472 10.868120 2.483528 1.542902 -1.069211 1.673156 7.346302 -14.107279 -4.743904 0.932032 -10.615169 -20.027860 -1.750022 7.100050 -52.809120 24.338817 5.316271 -20.164522 -34.323644 43.973271 -13.699474 -6.351313 -3.910651 18.885942 15.827541 -1.033143 27.396023 28.146211 -6.071024 -55.781927 63.415855 -33.202707 16.473912 -1.602537 8.123365 
-0.551129 0.148946 0.920462 148.599230 -5.114084 103.495752 11.899692 -2.900327 -39.645879 -4.926728 12.662998 63.998651 3.104092 8.884874 -14.173396 0.000000 -0.000000 0.000000 -0.566800 -0.903907 -1.867278 9.190389 5.594606 35.560910 -2.867242 -5.400749 -23.080998 0.000000 -0.000000 0.000000 -5.180918 13.759802 16.312033 4.344570 0.238875 12.677155 2.563029 3.870650 -1.453864 2.763854 5.089426 -12.772764 -0.765968 -6.649701 -11.567473 -16.860538 -0.309580 7.023142 -47.807063 23.034205 10.281347 -22.843129 -39.751991 48.124868 -20.289704 -12.139293 -10.018055 19.705474 15.827739 0.069717 25.335392 27.147014 -8.925352 -27.318377 39.184866 -11.927192 26.829693 -9.421452 5.129793 
